<svg xmlns="http://www.w3.org/2000/svg" width="123" height="25" fill="none"><path fill="#F5F5FF" d="M105.628 19.981V8.831h2.583v1.532c.861-.945 2.121-1.743 3.822-1.743 1.869 0 2.604.735 3.045 1.827.882-.966 2.205-1.827 3.906-1.827 2.268 0 3.255 1.365 3.255 3.36v8.001h-2.583v-7.35c0-1.239-.357-1.806-1.575-1.806-1.05 0-1.89.588-2.856 1.45v7.706h-2.583v-7.35c0-1.239-.357-1.806-1.575-1.806-1.029 0-1.89.588-2.856 1.45v7.706h-2.583Zm-8.808.169c-1.806 0-3.15-1.009-3.15-2.857 0-2.415 2.058-4.032 7.266-4.62v-.336c0-1.113-.588-1.596-1.827-1.596-1.554 0-2.814.756-3.76 1.512l-1.26-1.617c1.198-1.092 3.067-2.016 5.377-2.016 2.982 0 4.011 1.428 4.011 4.032v4.6c0 1.343.084 2.162.315 2.73h-2.604c-.147-.463-.252-.799-.252-1.429-1.134 1.155-2.457 1.596-4.116 1.596Zm.945-1.996c1.323 0 2.352-.504 3.171-1.28v-2.458c-3.087.42-4.725 1.176-4.725 2.394 0 .882.609 1.344 1.554 1.344Zm-11.057 1.827V8.831h2.583v1.826h.042c.693-1.113 1.89-2.037 4.011-2.037h.168l-.084 2.373a7.228 7.228 0 0 0-.693-.042c-1.659 0-2.709.777-3.444 1.974v7.056h-2.583Zm-7.495 4.326c-3.843 0-5.376-1.113-5.376-2.73 0-1.113.693-1.91 1.827-2.352-.567-.294-.86-.756-.86-1.365 0-.84.671-1.533 1.511-2.037-1.134-.714-1.764-1.848-1.764-3.213 0-2.289 1.764-3.99 4.683-3.99 1.533 0 2.667.504 3.423 1.176.714-.567 1.848-1.008 2.772-1.092v2.1c-.504 0-1.218.063-1.953.294.252.4.4.924.4 1.512 0 2.331-1.744 3.97-4.642 3.97-.63 0-1.008-.085-1.554-.232-.336.19-.567.42-.567.714 0 .441.294.588 1.281.672l1.974.126c3.297.21 4.6 1.092 4.6 3.045 0 2.29-2.31 3.402-5.755 3.402Zm.063-9.513c1.407 0 2.247-.735 2.247-2.1 0-1.386-.798-2.142-2.268-2.142-1.428 0-2.268.777-2.268 2.142 0 1.365.861 2.1 2.29 2.1Zm.336 7.644c1.89 0 3.066-.504 3.066-1.302s-.567-1.092-2.835-1.239l-1.932-.126a3.64 3.64 0 0 1-.672-.063c-.735.336-1.029.861-1.029 1.428 0 .987 1.134 1.302 3.402 1.302Zm-8.112-2.31c-2.835 0-3.445-1.05-3.445-3.066v-6.174h-1.931V8.83h1.931V4.945h2.583V8.83h2.877v2.058h-2.877v5.523c0 1.197.358 1.68 1.638 1.68.379 0 .862-.063 1.114-.147v2.037c-.273.063-1.24.147-1.89.147Zm-10.585-.147v-9.093h-1.932V8.83h1.932V7.696c0-1.869.777-3.318 3.612-3.318.483 0 1.344.084 1.533.105v1.995a4.826 4.826 0 0 0-.882-.084c-.924 0-1.68.252-1.68 1.45v.986h2.436v2.058h-2.436v9.093h-2.583Zm-9.774.169c-1.806 0-3.15-1.009-3.15-2.857 0-2.415 2.058-4.032 7.266-4.62v-.336c0-1.113-.588-1.596-1.827-1.596-1.554 0-2.814.756-3.759 1.512l-1.26-1.617c1.197-1.092 3.066-2.016 5.376-2.016 2.982 0 4.011 1.428 4.011 4.032v4.6c0 1.343.084 2.162.315 2.73h-2.604c-.147-.463-.252-.799-.252-1.429-1.134 1.155-2.457 1.596-4.116 1.596Zm.945-1.996c1.323 0 2.352-.504 3.171-1.28v-2.458c-3.087.42-4.725 1.176-4.725 2.394 0 .882.609 1.344 1.554 1.344ZM41.03 19.981V8.831h2.582v1.826h.042c.693-1.113 1.89-2.037 4.011-2.037h.168l-.084 2.373a7.228 7.228 0 0 0-.693-.042c-1.659 0-2.709.777-3.444 1.974v7.056H41.03Zm-8.04.294c-3.99 0-6.825-2.75-6.825-8.106 0-5.208 2.92-8.022 6.825-8.022 3.612 0 5.334 1.995 6.027 4.83l-2.498.714c-.588-2.058-1.491-3.108-3.55-3.108-2.625 0-4.158 2.037-4.158 5.565 0 3.696 1.576 5.733 4.2 5.733 2.017 0 3.15-1.008 3.738-3.339l2.5.567c-.757 3.087-2.668 5.166-6.259 5.166Z"/><g fill="#F5F5FF" clip-path="url(#a)"><path d="M10.655.981v10.5l-4.58-4.58a2.306 2.306 0 0 1-.669-1.613V.98h5.249Zm10.502 10.5H10.655l4.585-4.58a2.257 2.257 0 0 1 1.636-.67h4.305l-.024 5.25Zm-10.502 10.5v-10.5l4.58 4.587a2.253 2.253 0 0 1 .668 1.637v4.306l-5.248-.03ZM.157 11.481h10.498l-4.58 4.581a2.281 2.281 0 0 1-1.612.67H.157v-5.25Z"/></g><defs><clipPath id="a"><path fill="#fff" d="M.157.981h21v21h-21z"/></clipPath></defs></svg>