<svg xmlns="http://www.w3.org/2000/svg" width="88" height="23" fill="none"><path fill="#F8F5F5" d="M82.059 18.893c-1.312 0-2.424-.312-3.336-.936a5.824 5.824 0 0 1-2.016-2.424 8.078 8.078 0 0 1-.648-3.216c0-1.152.216-2.224.648-3.216a5.793 5.793 0 0 1 2.016-2.448c.912-.624 2.032-.936 3.36-.936 1.76 0 3.152.568 4.176 1.704 1.04 1.136 1.56 2.776 1.56 4.92v.792H78.89v.192c0 .56.128 1.088.384 1.584.272.496.64.896 1.104 1.2a3.11 3.11 0 0 0 1.632.432c.688 0 1.272-.16 1.752-.48.48-.336.84-.784 1.08-1.344h2.856a5.757 5.757 0 0 1-1.944 3c-.96.784-2.192 1.176-3.696 1.176Zm2.952-7.68c-.032-1.152-.32-1.992-.864-2.52-.528-.544-1.224-.816-2.088-.816-.928 0-1.672.304-2.232.912-.544.592-.832 1.4-.864 2.424h6.048Zm-15.075 7.68c-1.056 0-1.968-.2-2.736-.6-.768-.4-1.352-.92-1.752-1.56-.4-.656-.6-1.344-.6-2.064v-.144h2.856v.144c0 .496.2.944.6 1.344.4.4.968.6 1.704.6.608 0 1.104-.144 1.488-.432.384-.288.576-.688.576-1.2 0-.448-.168-.8-.504-1.056-.32-.256-.72-.416-1.2-.48l-1.512-.288a5.856 5.856 0 0 1-2.592-1.08c-.736-.576-1.104-1.432-1.104-2.568 0-1.184.432-2.112 1.296-2.784.864-.672 1.976-1.008 3.336-1.008.992 0 1.848.184 2.568.552.736.368 1.288.848 1.656 1.44.384.592.576 1.232.576 1.92v.096h-2.856v-.072c0-.432-.168-.84-.504-1.224-.32-.384-.832-.576-1.536-.576-.592 0-1.064.152-1.416.456-.352.288-.528.672-.528 1.152 0 .416.16.752.48 1.008.336.256.752.432 1.248.528l1.656.288c1.04.208 1.912.6 2.616 1.176.704.576 1.056 1.4 1.056 2.472 0 .784-.216 1.48-.648 2.088-.416.592-1 1.056-1.752 1.392-.736.32-1.56.48-2.472.48Zm-8.041-.096c-1.104 0-1.92-.168-2.448-.504-.528-.352-.864-.784-1.008-1.296-.128-.528-.192-1.2-.192-2.016V.701h2.904V14.43c0 .592.024 1.032.072 1.32.064.288.224.52.48.696.256.16.664.24 1.224.24.208 0 .456-.016.744-.048v2.016a9.724 9.724 0 0 1-1.776.144Zm-6.135-.096h-2.927v-2.136h-.144c-.304.656-.784 1.216-1.44 1.68-.64.464-1.424.696-2.352.696-1.104 0-1.992-.264-2.664-.792a4.353 4.353 0 0 1-1.416-2.016 7.628 7.628 0 0 1-.408-2.472V6.03h2.904v7.176c0 1.024.24 1.824.72 2.4.48.576 1.144.864 1.992.864.912 0 1.608-.304 2.088-.912.48-.624.72-1.408.72-2.352V6.03h2.928v12.672Zm-18.622-16.8c1.344 0 2.464.272 3.36.816.896.544 1.552 1.248 1.968 2.112.432.864.648 1.784.648 2.76a6.28 6.28 0 0 1-.624 2.76c-.416.848-1.072 1.536-1.968 2.064-.896.528-2.024.792-3.384.792h-3.192v5.496H31.09v-16.8h6.048Zm-.432 8.88c1.008 0 1.856-.24 2.544-.72.688-.496 1.032-1.32 1.032-2.472 0-1.136-.344-1.936-1.032-2.4-.672-.48-1.52-.72-2.544-.72h-2.76v6.312h2.76Z"/><g fill="#F8F5F5" clip-path="url(#a)"><path d="M.578 6.675v5.994c0 1.57 2.486 1.576 2.486 0V6.675c0-.324-.131-.634-.364-.864a1.254 1.254 0 0 0-1.758 0c-.233.23-.364.54-.364.864Zm20.521.001v5.993c.022.308.163.596.393.806a1.255 1.255 0 0 0 1.693 0c.23-.21.37-.498.393-.806V6.676a1.214 1.214 0 0 0-.393-.807 1.254 1.254 0 0 0-1.693 0c-.23.21-.37.499-.393.807ZM5.707 1.884v15.434c0 .325.13.635.364.864a1.254 1.254 0 0 0 1.758 0c.232-.229.363-.54.363-.863V1.883c0-.324-.13-.634-.364-.864a1.254 1.254 0 0 0-1.757 0 1.21 1.21 0 0 0-.364.864Zm10.257 0v15.434c0 .325.13.635.364.864a1.254 1.254 0 0 0 1.758 0 1.21 1.21 0 0 0 .363-.863V1.883c0-.324-.13-.634-.364-.864a1.254 1.254 0 0 0-1.757 0c-.233.23-.364.54-.364.864ZM10.835 6.11v15.434c0 1.569 2.486 1.575 2.486 0V6.11c0-1.57-2.486-1.576-2.486 0Z"/></g><defs><clipPath id="a"><path fill="#fff" d="M.578.701h23v22h-23z"/></clipPath></defs></svg>