<svg xmlns="http://www.w3.org/2000/svg" width="97" height="27" fill="none"><path fill="#F3F3F9" d="M95.524 15.08c0 .485-.035.9-.104 1.247h-9.932c.225.797.658 1.43 1.3 1.898.641.45 1.36.676 2.158.676.641 0 1.274-.121 1.898-.364a3.973 3.973 0 0 0 1.56-1.144l2.418 2.028c-1.37 1.681-3.372 2.522-6.006 2.522a6.824 6.824 0 0 1-3.458-.91 7.17 7.17 0 0 1-2.496-2.496 6.828 6.828 0 0 1-.91-3.458c0-1.248.303-2.392.91-3.432a6.892 6.892 0 0 1 2.496-2.496 6.682 6.682 0 0 1 3.458-.936c1.248 0 2.383.312 3.406.936a6.561 6.561 0 0 1 2.418 2.496c.589 1.04.884 2.184.884 3.432Zm-3.458-1.119c-.191-.85-.581-1.5-1.17-1.95-.572-.468-1.266-.702-2.08-.702-.832 0-1.552.234-2.158.702-.607.468-1.014 1.118-1.222 1.95h6.63ZM79.604 3.457v18.2H76.25v-18.2h3.354Zm-17.502 0v18.2H58.75v-18.2h3.353Zm7.956 18.2-6.812-6.89 6.11-6.266h4.603l-6.24 6.266 6.968 6.89h-4.629ZM56.684 11.361a3.495 3.495 0 0 0-.702-.052c-1.057 0-1.906.373-2.548 1.118-.64.728-.962 1.664-.962 2.808v6.422h-3.354V8.501h3.354v1.95a5.333 5.333 0 0 1 1.742-1.612c.711-.416 1.534-.624 2.47-.624v3.146ZM42.35 19.993c-1.195 1.3-2.755 1.95-4.68 1.95a6.6 6.6 0 0 1-3.353-.884 6.884 6.884 0 0 1-2.418-2.47c-.59-1.057-.884-2.227-.884-3.51s.295-2.444.884-3.484c.607-1.057 1.413-1.88 2.418-2.47a6.455 6.455 0 0 1 3.354-.91c1.924 0 3.484.65 4.68 1.95V8.501h3.38v13.156h-3.38v-1.664Zm0-4.914c0-.78-.172-1.473-.52-2.08a3.726 3.726 0 0 0-1.43-1.456 4.014 4.014 0 0 0-2.027-.52c-.763 0-1.447.174-2.054.52A3.726 3.726 0 0 0 34.889 13c-.347.607-.52 1.3-.52 2.08s.173 1.482.52 2.106a3.777 3.777 0 0 0 1.43 1.43c.607.347 1.291.52 2.054.52.745 0 1.421-.173 2.028-.52a3.777 3.777 0 0 0 1.43-1.43c.347-.624.52-1.326.52-2.106Zm-12.909.001c0 1.282-.303 2.452-.91 3.51a6.614 6.614 0 0 1-2.418 2.47c-1.005.588-2.114.883-3.328.883-1.906 0-3.475-.65-4.706-1.95v6.708h-3.354v-18.2h3.354v1.664c1.231-1.3 2.8-1.95 4.706-1.95 1.214 0 2.323.304 3.328.91a6.37 6.37 0 0 1 2.418 2.47c.607 1.04.91 2.201.91 3.484Zm-3.38 0c0-.78-.173-1.474-.52-2.08a3.726 3.726 0 0 0-1.43-1.457 4.014 4.014 0 0 0-2.028-.52c-.762 0-1.447.174-2.054.52A3.727 3.727 0 0 0 18.6 13c-.346.607-.52 1.3-.52 2.08s.174 1.482.52 2.106a3.777 3.777 0 0 0 1.43 1.43c.607.347 1.292.52 2.054.52.746 0 1.422-.173 2.028-.52a3.776 3.776 0 0 0 1.43-1.43c.347-.624.52-1.326.52-2.106ZM.088 19.395c.104-.104.771-.918 2.002-2.444.347.399.806.78 1.378 1.144.59.347 1.17.59 1.742.728.572.122 1.057.182 1.456.182.572 0 1.031-.095 1.378-.286.347-.19.52-.477.52-.858 0-.312-.121-.537-.364-.676a2.657 2.657 0 0 0-.754-.312c-.26-.07-.442-.121-.546-.156A57.115 57.115 0 0 1 3.416 15.6a3.852 3.852 0 0 1-1.794-1.326 3.369 3.369 0 0 1-.65-2.002c0-.121.017-.303.052-.546.19-1.23.832-2.114 1.924-2.652 1.092-.554 2.331-.832 3.718-.832.919 0 1.855.13 2.808.39.97.243 1.777.572 2.418.988l-1.456 2.912a16.182 16.182 0 0 0-1.482-.728 5.903 5.903 0 0 0-1.352-.39 7.524 7.524 0 0 0-1.404-.156c-.572 0-1.005.095-1.3.286-.277.19-.416.425-.416.702 0 .347.156.607.468.78.33.156.997.355 2.002.598-.052-.017.208.052.78.208 1.473.382 2.54.824 3.198 1.326.676.503 1.066 1.23 1.17 2.184.018.104.026.252.026.442 0 .676-.182 1.291-.546 1.846-.347.537-.832.988-1.456 1.352-.45.277-1.005.503-1.664.676a7.073 7.073 0 0 1-1.846.26c-1.404 0-2.67-.216-3.796-.65-1.11-.45-2.02-1.075-2.73-1.872Zm87.506-17.23v3.492h-.774V2.165h-1.392v-.708h3.552v.708h-1.386Zm2.573.684v2.808h-.774v-4.2h.792l1.308 2.328 1.308-2.328h.792v4.2h-.774V2.85l-1.122 1.938h-.408L90.167 2.85Zm4.208 2.424c0-.124.044-.23.132-.318a.424.424 0 0 1 .318-.138.44.44 0 0 1 .324.132.44.44 0 0 1 .132.324c0 .124-.046.23-.138.318a.433.433 0 0 1-.318.132.433.433 0 0 1-.318-.132.433.433 0 0 1-.132-.318Z"/></svg>