<svg xmlns="http://www.w3.org/2000/svg" width="99" height="31" fill="none"><path fill="#F3F5FA" d="M98.353 16.97c0 .687-.078 1.445-.235 2.273-.14.813-.39 1.57-.75 2.274a5.127 5.127 0 0 1-1.382 1.757c-.563.469-1.274.703-2.133.703-.219 0-.445-.015-.68-.047a3.318 3.318 0 0 1-.68-.163 2.442 2.442 0 0 1-.562-.305 1.39 1.39 0 0 1-.398-.54l-.212 3.376c-.015.36-.03.789-.046 1.289 0 .5-.063.976-.188 1.43-.11.453-.305.835-.586 1.148-.265.328-.656.492-1.172.492-.296 0-.546-.156-.75-.469-.203-.296-.367-.68-.492-1.148a13.17 13.17 0 0 1-.258-1.57 21.323 21.323 0 0 1-.117-1.665 49.525 49.525 0 0 1-.023-1.453v-.96c0-1.047-.008-2.087-.024-3.118a210.786 210.786 0 0 1-.023-3.14v-.867c0-.407.016-.844.047-1.313s.078-.953.14-1.453c.079-.5.188-.953.329-1.36.14-.421.32-.757.538-1.007.22-.266.485-.399.797-.399.204 0 .383.063.54.188.171.11.312.258.421.445.125.172.227.36.305.563.078.203.14.39.188.562a4.895 4.895 0 0 1 1.664-1.242 5.016 5.016 0 0 1 2.039-.422c.75 0 1.359.21 1.828.633.484.422.86.945 1.125 1.57.281.625.476 1.297.586 2.016.11.703.164 1.344.164 1.922ZM95 16.782c0-.234-.023-.469-.07-.703a1.923 1.923 0 0 0-.211-.68 1.146 1.146 0 0 0-.422-.515c-.187-.141-.422-.211-.703-.211-.375 0-.773.125-1.195.375-.407.234-.711.508-.914.82-.079.125-.125.328-.141.61-.016.28-.023.492-.023.632v.445l.046.54.047.539c.031.171.07.304.117.398.047.14.149.273.305.398.156.11.328.212.516.305.187.094.375.164.562.211.203.047.375.07.516.07a.978.978 0 0 0 .797-.374c.203-.25.36-.547.469-.891.124-.344.203-.696.234-1.055.047-.375.07-.68.07-.914Zm-9.028 3.868c0 .28-.015.648-.047 1.1a6.4 6.4 0 0 1-.187 1.337 3.12 3.12 0 0 1-.516 1.101c-.234.313-.562.47-.984.47-.578 0-1.024-.188-1.336-.563-.313-.375-.461-.844-.445-1.407-.5.438-1.07.782-1.711 1.032a5.132 5.132 0 0 1-1.922.375 2.68 2.68 0 0 1-1.29-.328 4.028 4.028 0 0 1-1.078-.844 4.282 4.282 0 0 1-.75-1.149 3.257 3.257 0 0 1-.28-1.289c0-.75.226-1.406.679-1.968a6.367 6.367 0 0 1 1.71-1.43 9.692 9.692 0 0 1 2.134-.961c.765-.235 1.445-.39 2.039-.469v-.21a.873.873 0 0 0 .023-.212c0-.484-.133-.875-.398-1.172-.266-.296-.64-.445-1.125-.445-.39 0-.727.07-1.008.211a4.952 4.952 0 0 0-.797.445c-.25.157-.5.305-.75.446a1.86 1.86 0 0 1-.844.187c-.343 0-.64-.11-.89-.328a1.103 1.103 0 0 1-.352-.844c0-.515.149-.984.446-1.406a4.115 4.115 0 0 1 1.148-1.055 5.906 5.906 0 0 1 1.5-.68c.547-.171 1.047-.257 1.5-.257.422 0 .844.055 1.266.164.421.094.82.25 1.195.469.375.203.71.46 1.008.773.312.297.562.649.75 1.055.28.578.508 1.195.68 1.851.171.64.304 1.305.398 1.993.094.671.156 1.351.187 2.038.032.672.047 1.329.047 1.97Zm-3.75-.75-.07-1.595h-.094a.208.208 0 0 0-.094-.023c-.203 0-.46.055-.773.164a3.415 3.415 0 0 0-.867.422 3.409 3.409 0 0 0-.727.586c-.187.219-.281.445-.281.68 0 .218.078.367.234.445.157.078.336.117.54.117.343 0 .71-.086 1.1-.258a14.68 14.68 0 0 0 1.032-.539ZM75.326 8.438c0 .078-.078.305-.234.68a22.39 22.39 0 0 1-.586 1.383c-.25.547-.54 1.164-.868 1.851-.312.672-.64 1.368-.984 2.086-.344.704-.68 1.399-1.008 2.086a111.63 111.63 0 0 1-.914 1.875l-.68 1.406-.351.704c.484-.157.977-.282 1.477-.375a7.434 7.434 0 0 1 1.546-.164c.25 0 .516.023.797.07.281.031.54.11.774.234.25.11.453.266.61.469.17.188.257.445.257.774 0 .343-.117.656-.352.937a3.28 3.28 0 0 1-.914.703c-.36.203-.773.375-1.242.516-.469.14-.937.258-1.406.351-.469.094-.914.156-1.336.188-.422.047-.774.07-1.055.07-.36 0-.758-.015-1.195-.047a4.579 4.579 0 0 1-1.219-.258 2.627 2.627 0 0 1-.984-.609c-.25-.281-.375-.672-.375-1.172 0-.344.093-.805.281-1.383.203-.593.438-1.195.703-1.804.266-.625.54-1.22.82-1.782.297-.578.532-1.03.704-1.359a497.33 497.33 0 0 1 1.593-2.93c.547-.984 1.078-1.976 1.594-2.976a13.26 13.26 0 0 1-1.875.867c-.703.25-1.367.375-1.992.375a2.907 2.907 0 0 1-1.36-.352 1.674 1.674 0 0 1-.468-.468 1.155 1.155 0 0 1-.188-.657 1.8 1.8 0 0 1 .399-1.125 4.3 4.3 0 0 1 1.03-.937 9.058 9.058 0 0 1 1.454-.75 13.4 13.4 0 0 1 1.64-.54 17.15 17.15 0 0 1 1.548-.327c.5-.078.921-.117 1.265-.117.906 0 1.649.18 2.227.539.578.359.867 1.015.867 1.968ZM60.695 24.61c-.265 0-.476-.125-.633-.375a2.604 2.604 0 0 1-.351-.82 6.544 6.544 0 0 1-.164-.938 16.954 16.954 0 0 1-.024-.75c0-.468.024-.937.07-1.406l.188-1.406c.078-.469.14-.938.188-1.406.062-.47.093-.938.093-1.407 0-.187-.007-.39-.023-.609a2.483 2.483 0 0 0-.117-.61.994.994 0 0 0-.258-.491.666.666 0 0 0-.492-.188c-.14 0-.297.117-.469.351a5.085 5.085 0 0 0-.492.774 8.54 8.54 0 0 0-.375.867c-.094.281-.14.492-.14.633v1.055c.015.343.023.695.023 1.054v1.36c-.016.281-.04.57-.07.867a7.706 7.706 0 0 1-.141.867 4.866 4.866 0 0 1-.211.82c-.094.25-.219.477-.375.68a1.85 1.85 0 0 1-.516.469 1.359 1.359 0 0 1-.726.187 1.05 1.05 0 0 1-.774-.304 2.269 2.269 0 0 1-.492-.774 5.436 5.436 0 0 1-.281-1.078 37.22 37.22 0 0 1-.117-1.172c-.016-.39-.024-.742-.024-1.055.016-.328.024-.585.024-.773V17.93c0-.593-.016-1.18-.047-1.757a63.88 63.88 0 0 1-.024-1.735v-1.195c.016-.484.078-.953.188-1.406.11-.469.289-.867.539-1.195.25-.329.617-.493 1.101-.493a.9.9 0 0 1 .586.211c.172.14.32.313.446.516.14.203.25.422.328.656.094.235.164.438.21.61.157-.22.337-.43.54-.633.219-.204.46-.383.726-.54a3.82 3.82 0 0 1 .891-.374 4.09 4.09 0 0 1 1.125-.141c.797 0 1.414.195 1.852.586.453.375.78.852.984 1.43.219.562.352 1.171.398 1.828.047.656.07 1.25.07 1.781 0 .266-.023.664-.07 1.195a22.534 22.534 0 0 1-.234 1.735 19.617 19.617 0 0 1-.398 1.945 12.845 12.845 0 0 1-.61 1.805c-.234.546-.515.992-.844 1.336-.312.343-.671.515-1.078.515Zm-7.833-4.828c0 .531-.172 1.055-.516 1.57-.328.5-.75.953-1.266 1.36-.5.39-1.039.71-1.617.96-.578.235-1.11.352-1.594.352-.828 0-1.57-.203-2.226-.61a5.816 5.816 0 0 1-1.617-1.593 7.727 7.727 0 0 1-1.008-2.11 8.419 8.419 0 0 1-.328-2.273c0-.78.11-1.617.328-2.507a9.22 9.22 0 0 1 .984-2.461 6.491 6.491 0 0 1 1.688-1.875c.687-.5 1.5-.75 2.437-.75.531 0 1.04.093 1.524.28a3.71 3.71 0 0 1 1.265.75c.36.329.649.72.867 1.173.22.453.329.96.329 1.523 0 .735-.157 1.422-.47 2.063a5.46 5.46 0 0 1-1.241 1.664 6.575 6.575 0 0 1-1.782 1.148 5.995 5.995 0 0 1-2.062.469c.062.453.242.781.539.984.312.203.68.305 1.102.305.312 0 .617-.078.914-.234a9.75 9.75 0 0 0 .867-.516c.281-.203.554-.383.82-.54.281-.155.563-.234.844-.234.312 0 .594.102.844.305s.375.469.375.797Zm-3.797-5.742a1.42 1.42 0 0 0-.164-.633.542.542 0 0 0-.516-.328c-.344 0-.633.094-.867.281-.235.172-.43.399-.586.68a3.925 3.925 0 0 0-.375.867 4.747 4.747 0 0 0-.14.867c.218-.047.476-.11.773-.187.312-.078.601-.18.867-.305a2.41 2.41 0 0 0 .703-.515.992.992 0 0 0 .305-.727ZM42.59 8.438c0 .078-.078.305-.234.68-.14.375-.336.836-.586 1.383-.25.547-.539 1.164-.867 1.851-.313.672-.64 1.368-.984 2.086-.344.704-.68 1.399-1.008 2.086a111.63 111.63 0 0 1-.914 1.875c-.266.547-.493 1.016-.68 1.406l-.352.704a11.79 11.79 0 0 1 1.477-.375 7.434 7.434 0 0 1 1.547-.164c.25 0 .515.023.797.07.28.031.539.11.773.234.25.11.453.266.61.469.171.188.257.445.257.774 0 .343-.117.656-.351.937-.235.266-.54.5-.914.703-.36.203-.774.375-1.242.516-.47.14-.938.258-1.407.351-.468.094-.914.156-1.336.188-.422.047-.773.07-1.054.07-.36 0-.758-.015-1.196-.047a4.579 4.579 0 0 1-1.218-.258 2.627 2.627 0 0 1-.985-.609c-.25-.281-.375-.672-.375-1.172 0-.344.094-.805.281-1.383a24.07 24.07 0 0 1 .704-1.804c.265-.625.539-1.22.82-1.782.297-.578.531-1.03.703-1.359a497.33 497.33 0 0 1 1.594-2.93c.547-.984 1.078-1.976 1.593-2.976-.546.312-1.171.601-1.874.867-.704.25-1.368.375-1.993.375a2.907 2.907 0 0 1-1.36-.352 1.674 1.674 0 0 1-.468-.468 1.155 1.155 0 0 1-.187-.657 1.8 1.8 0 0 1 .398-1.125 4.3 4.3 0 0 1 1.031-.937 9.058 9.058 0 0 1 1.453-.75 13.4 13.4 0 0 1 1.641-.54c.547-.14 1.063-.25 1.547-.327.5-.078.922-.117 1.266-.117.906 0 1.648.18 2.226.539.578.359.867 1.015.867 1.968Z"/><g fill="#F3F5FA" clip-path="url(#a)"><path d="M.043 15.446h14.5V.954a17.655 17.655 0 0 1-4.93 9.569 17.637 17.637 0 0 1-9.57 4.923Zm14.5 14.508V15.446h14.5a17.629 17.629 0 0 0-9.574 4.928 17.645 17.645 0 0 0-4.926 9.58Z"/></g><defs><clipPath id="a"><path fill="#fff" d="M.043.954h29v29h-29z"/></clipPath></defs></svg>