<svg xmlns="http://www.w3.org/2000/svg" width="47" height="34" fill="none"><path fill="#fff" d="M39.373 2.872c5.153 7.41 7.698 15.767 6.747 25.388a.144.144 0 0 1-.06.103 38.058 38.058 0 0 1-11.412 5.63.149.149 0 0 1-.16-.052 29.676 29.676 0 0 1-2.33-3.705.142.142 0 0 1 .078-.198 23.553 23.553 0 0 0 3.561-1.657.141.141 0 0 0 .013-.237 19.52 19.52 0 0 1-.71-.543.141.141 0 0 0-.148-.018c-7.38 3.332-15.465 3.332-22.933 0a.145.145 0 0 0-.148.02c-.228.183-.467.366-.706.54a.141.141 0 0 0 .014.238 25.13 25.13 0 0 0 3.56 1.659c.08.03.118.12.079.196a26.398 26.398 0 0 1-2.331 3.707.15.15 0 0 1-.16.05 38.181 38.181 0 0 1-11.394-5.63.15.15 0 0 1-.06-.104c-.795-8.323.826-16.75 6.741-25.39a.133.133 0 0 1 .061-.05A38.169 38.169 0 0 1 16.963.002a.148.148 0 0 1 .15.07c.403.697.863 1.59 1.174 2.322a35.537 35.537 0 0 1 10.432 0A25.46 25.46 0 0 1 29.876.072a.144.144 0 0 1 .15-.07 38.22 38.22 0 0 1 9.287 2.817c.026.01.047.028.06.053zm-19.34 15.824c.037-2.46-1.798-4.497-4.1-4.497-2.284 0-4.1 2.019-4.1 4.497 0 2.477 1.852 4.495 4.1 4.495 2.284 0 4.1-2.018 4.1-4.495zm15.163 0c.036-2.46-1.798-4.497-4.1-4.497-2.285 0-4.102 2.019-4.102 4.497 0 2.477 1.853 4.495 4.102 4.495 2.302 0 4.1-2.018 4.1-4.495z"/></svg>