<svg xmlns="http://www.w3.org/2000/svg" width="40" height="40" fill="none"><g clip-path="url(#a)"><path fill="#3A6EF2" fill-rule="evenodd" d="M19.603 3.141C19.47 1.585 20.626.119 22.383.008c1.312-.09 2.357.51 3.024 1.666.327.568.657 1.136.988 1.705v.001h.001c.524.9 1.05 1.804 1.568 2.717.192.333.392.661.593.99.4.656.8 1.313 1.14 2.01.98 1.977-.2 4.155-2.4 4.444-1.246.178-2.469-.489-3.18-1.689-.456-.778-.906-1.561-1.356-2.344-.45-.784-.9-1.567-1.357-2.345a69.767 69.767 0 0 0-.644-1.089 61.17 61.17 0 0 1-.645-1.089c-.334-.577-.623-1.177-.534-1.822l.022-.022zm6.537 16.733c.134 3.09-2.534 5.867-5.736 6-3.157.134-6.048-2.555-6.115-5.777a5.968 5.968 0 0 1 5.826-6.023c3.157-.11 5.914 2.534 6.025 5.8zM14.578 38.32c.623 1.066 1.512 1.689 2.69 1.666l.023.023c1.378.044 2.468-.667 2.957-1.845.467-1.066.245-2.066-.289-3.022-.775-1.365-1.58-2.73-2.379-4.081l-.49-.83-.387-.67v-.001c-.331-.575-.66-1.147-1.013-1.707-.711-1.089-2.023-1.578-3.313-1.289-1.267.289-2.157 1.267-2.357 2.578-.133.844.111 1.578.534 2.289l1.076 1.85c.977 1.68 1.957 3.365 2.948 5.039zm18.1-14.09c-2.29.134-3.803-2.444-2.78-4.31a167.482 167.482 0 0 1 2.248-4.016c.289-.505.578-1.01.865-1.518.378-.689.756-1.377 1.156-2.044.734-1.267 1.98-1.845 3.335-1.556 1.357.29 2.38 1.334 2.49 2.756a3.308 3.308 0 0 1-.377 1.733A366.037 366.037 0 0 1 35.3 22.83c-.578.978-1.49 1.444-2.623 1.422v-.022zm-32.263.4c-1.178 2.134.289 4.668 2.69 4.668l-.022-.023c1.179 0 2.135-.555 2.757-1.644a731.509 731.509 0 0 0 4.047-7.089c.267-.467.467-1 .511-1.533a2.964 2.964 0 0 0-1.979-3.09c-1.4-.488-2.823-.044-3.646 1.179a30.856 30.856 0 0 0-1.014 1.7l-.298.522-.821 1.425A410.2 410.2 0 0 0 .414 24.63zm28.794 3.045c.495 0 .994-.005 1.493-.01 1-.01 2.004-.02 2.998.01 1.6.067 2.735 1.356 2.801 3 .045 1.578-1 2.823-2.579 3.045-.063.007-.128.016-.194.025-.144.02-.291.041-.428.041h-8.494c-.823 0-1.579-.244-2.157-.866-.889-.956-1.111-2.09-.644-3.29.466-1.2 1.4-1.91 2.712-1.955a75.83 75.83 0 0 1 2.998-.01c.5.005.998.01 1.494.01zM3.617 10.03c.31 1.333 1.4 2.289 2.779 2.311v.022c.632.01 2.058.003 3.586-.005 2.017-.01 4.212-.02 4.996.005 1.246.045 2.135-.489 2.802-1.489 1.2-1.777.089-4.31-2.046-4.6-.667-.089-6.915-.089-9.338 0-2.001.067-3.224 1.8-2.78 3.756z" clip-rule="evenodd"/></g><defs><clipPath id="a"><path fill="#fff" d="M0 0h40v40H0z"/></clipPath></defs></svg>