<svg xmlns="http://www.w3.org/2000/svg" width="40" height="40" fill="none"><g fill-rule="evenodd" stroke-linecap="round" stroke-width=".79" clip-path="url(#a)" clip-rule="evenodd"><path fill="#E01E5A" stroke="#E01E5A" stroke-linejoin="round" d="M11.111 25.193c0-2.33 1.762-4.206 3.95-4.206 2.19 0 3.952 1.876 3.952 4.206v10.354c0 2.33-1.762 4.206-3.951 4.206s-3.95-1.876-3.95-4.206V25.193z"/><path fill="#ECB22D" stroke="#ECB22D" stroke-linejoin="round" d="M25.193 28.889c-2.33 0-4.206-1.762-4.206-3.951s1.876-3.95 4.206-3.95h10.354c2.33 0 4.206 1.761 4.206 3.95s-1.876 3.95-4.206 3.95H25.193z"/><path fill="#2FB67C" stroke="#2FB67C" stroke-linejoin="round" d="M20.987 4.453c0-2.33 1.762-4.206 3.95-4.206 2.19 0 3.951 1.876 3.951 4.206v10.353c0 2.33-1.761 4.207-3.95 4.207s-3.95-1.876-3.95-4.207V4.453z"/><path fill="#36C5F1" stroke="#36C5F1" stroke-linejoin="round" d="M4.453 19.013c-2.33 0-4.206-1.762-4.206-3.951s1.876-3.95 4.206-3.95h10.353c2.33 0 4.207 1.761 4.207 3.95s-1.876 3.95-4.207 3.95H4.453z"/><path fill="#ECB22D" stroke="#ECB22D" d="M20.988 35.802a3.941 3.941 0 0 0 3.95 3.95 3.942 3.942 0 0 0 3.952-3.95 3.944 3.944 0 0 0-3.951-3.95h-3.95v3.95z"/><path fill="#2FB67C" stroke="#2FB67C" d="M35.802 19.013h-3.95v-3.951a3.942 3.942 0 0 1 3.95-3.95 3.942 3.942 0 0 1 3.95 3.95 3.942 3.942 0 0 1-3.95 3.95z"/><path fill="#E01E5A" stroke="#E01E5A" d="M4.198 20.988h3.95v3.95a3.942 3.942 0 0 1-3.95 3.952 3.941 3.941 0 0 1-3.95-3.951 3.942 3.942 0 0 1 3.95-3.95z"/><path fill="#36C5F1" stroke="#36C5F1" d="M19.013 4.198v3.95h-3.951a3.942 3.942 0 0 1-3.95-3.95 3.942 3.942 0 0 1 3.95-3.95 3.942 3.942 0 0 1 3.95 3.95z"/></g><defs><clipPath id="a"><path fill="#fff" d="M0 0h40v40H0z"/></clipPath></defs></svg>