<svg xmlns="http://www.w3.org/2000/svg" width="131" height="27" fill="none"><path fill="#F9F9F9" d="M120.364 11.773c0-1.152.432-2.056 1.296-2.712.864-.672 2.048-1.008 3.552-1.008 1.52 0 2.704.336 3.552 1.008.864.656 1.312 1.576 1.344 2.76h-2.568a1.438 1.438 0 0 0-.648-1.2c-.4-.304-.936-.456-1.608-.456-.768 0-1.36.128-1.776.384-.4.256-.6.632-.6 1.128 0 .48.184.848.552 1.104.368.24.832.432 1.392.576.56.128 1.16.256 1.8.384.64.112 1.24.296 1.8.552.56.24 1.024.584 1.392 1.032.368.432.552 1.04.552 1.824 0 1.168-.432 2.088-1.296 2.76-.864.656-2.104.984-3.72.984-1.68 0-2.984-.344-3.912-1.032-.912-.688-1.368-1.608-1.368-2.76h2.568c.176 1.12 1.096 1.68 2.76 1.68 1.6 0 2.4-.488 2.4-1.464 0-.48-.184-.832-.552-1.056-.368-.224-.832-.4-1.392-.528a20.63 20.63 0 0 0-1.8-.384 8.095 8.095 0 0 1-1.8-.528 3.77 3.77 0 0 1-1.368-1.08c-.368-.48-.552-1.136-.552-1.968Zm-1.479 2.737a6.91 6.91 0 0 1-.456 2.52 6.258 6.258 0 0 1-1.272 2.015 6.02 6.02 0 0 1-1.944 1.368c-.736.336-1.552.504-2.448.504-1.024 0-1.88-.176-2.568-.528a4.563 4.563 0 0 1-1.632-1.488v1.8h-2.472V3.421h2.472v6.648a4.361 4.361 0 0 1 1.632-1.464c.688-.368 1.544-.552 2.568-.552.896 0 1.712.168 2.448.504.752.32 1.4.776 1.944 1.368a6.198 6.198 0 0 1 1.272 2.04c.304.784.456 1.632.456 2.544Zm-10.32-.817v1.632c.08.432.224.84.432 1.224s.472.72.792 1.008c.336.288.72.512 1.152.672.448.16.928.24 1.44.24.608 0 1.152-.104 1.632-.312a3.827 3.827 0 0 0 1.992-2.136c.192-.48.288-.984.288-1.512s-.096-1.032-.288-1.512a3.766 3.766 0 0 0-.768-1.296 3.4 3.4 0 0 0-1.224-.888c-.48-.224-1.024-.336-1.632-.336-.528 0-1.008.088-1.44.264a3.76 3.76 0 0 0-1.152.672c-.32.288-.584.632-.792 1.032-.208.384-.352.8-.432 1.248Zm-5.198 7.008h-2.472v-1.8a4.509 4.509 0 0 1-1.656 1.488c-.672.352-1.528.528-2.568.528-.88 0-1.696-.168-2.448-.504a6.02 6.02 0 0 1-1.944-1.368 6.258 6.258 0 0 1-1.272-2.016 6.91 6.91 0 0 1-.456-2.52c0-.912.152-1.76.456-2.544a6.199 6.199 0 0 1 1.272-2.04 5.57 5.57 0 0 1 1.944-1.368 5.932 5.932 0 0 1 2.448-.504c1.04 0 1.896.184 2.568.552.688.352 1.24.848 1.656 1.488v-1.8h2.472v12.408Zm-2.472-6.888a3.96 3.96 0 0 0-.408-1.296 3.337 3.337 0 0 0-.816-1.056 3.811 3.811 0 0 0-1.176-.72 3.97 3.97 0 0 0-1.464-.264c-.608 0-1.152.112-1.632.336a3.4 3.4 0 0 0-1.224.888c-.336.368-.592.8-.768 1.296-.176.48-.264.984-.264 1.512s.088 1.032.264 1.512c.192.464.456.88.792 1.248s.744.664 1.224.888c.48.208 1.016.312 1.608.312.528 0 1.016-.08 1.464-.24.448-.176.84-.408 1.176-.696a3.87 3.87 0 0 0 .816-1.032c.208-.4.344-.824.408-1.272v-1.416ZM79.348 4.621h2.592v13.68h7.824v2.4H79.348V4.621ZM26.089 8.293h2.472v2.016c.448-.704 1-1.256 1.656-1.656.672-.4 1.44-.6 2.304-.6.944 0 1.728.248 2.352.744.624.48 1.072 1.128 1.344 1.944.448-.832 1.032-1.488 1.752-1.968s1.56-.72 2.52-.72c.624 0 1.184.112 1.68.336.496.224.912.544 1.248.96.352.4.616.88.792 1.44a5.59 5.59 0 0 1 .288 1.824v8.088h-2.472v-7.416c0-.912-.232-1.608-.696-2.088-.448-.496-1.024-.744-1.728-.744-.432 0-.84.12-1.224.36-.368.224-.688.52-.96.888a4.535 4.535 0 0 0-.648 1.272 5.36 5.36 0 0 0-.24 1.416v6.312h-2.472v-7.416c0-.912-.232-1.608-.696-2.088-.448-.496-1.024-.744-1.728-.744-.432 0-.832.12-1.2.36-.368.224-.688.52-.96.888a4.535 4.535 0 0 0-.648 1.272c-.16.464-.248.936-.264 1.416v6.312h-2.472V8.293Zm-2.742 12.408h-2.472v-2.184a5.044 5.044 0 0 1-1.848 1.776c-.768.432-1.632.648-2.592.648-.688 0-1.304-.112-1.848-.336a4.396 4.396 0 0 1-1.368-.96 4.667 4.667 0 0 1-.864-1.44 5.59 5.59 0 0 1-.288-1.824V8.293h2.472v7.416c0 .912.256 1.616.768 2.112.528.48 1.2.72 2.016.72.512 0 .976-.112 1.392-.336.432-.24.8-.544 1.104-.912.32-.384.568-.808.744-1.272.192-.48.296-.96.312-1.44V8.293h2.472v12.408ZM0 4.621h2.592v13.68h7.824v2.4H0V4.621Z"/><g clip-path="url(#a)"><path fill="#F9F9F9" d="M50.84.701a2 2 0 0 0-2 2v22a2 2 0 0 0 2 2h22a2 2 0 0 0 2-2v-22a2 2 0 0 0-2-2h-22Zm11 18.93a5.916 5.916 0 1 1 0-11.832 5.916 5.916 0 0 1 0 11.833Z"/></g><defs><clipPath id="a"><path fill="#fff" d="M48.84.701h26v26h-26z"/></clipPath></defs></svg>